<?xml version="1.0" encoding="utf-8"?>
<!-- Generator: Adobe Illustrator 24.1.0, SVG Export Plug-In . SVG Version: 6.00 Build 0)  -->
<svg version="1.1" id="Calque_1" xmlns="http://www.w3.org/2000/svg" xmlns:xlink="http://www.w3.org/1999/xlink" x="0px" y="0px"
	 viewBox="0 0 20 30" style="enable-background:new 0 0 20 30;" xml:space="preserve">
<style type="text/css">
	.st0{fill:url(#SVGID_1_);}
	.st1{fill:url(#SVGID_2_);}
	.st2{fill:#61C1D2;}
</style>
<g>
	<linearGradient id="SVGID_1_" gradientUnits="userSpaceOnUse" x1="11.8232" y1="15.4718" x2="11.8232" y2="4.4533">
		<stop  offset="0" style="stop-color:#4C99D4"/>
		<stop  offset="1" style="stop-color:#2F52A0"/>
	</linearGradient>
	<path class="st0" d="M7.74,12.78c0,0,1.64,0.39,3.52-1.57s1.31-4.73,0.54-6.06s2.88-0.44,3.62,1.75c0.74,2.18,1.13,5.03-1,7.09
		s-5.16,1.7-6.14,1.05S7.74,12.78,7.74,12.78z"/>
	<linearGradient id="SVGID_2_" gradientUnits="userSpaceOnUse" x1="8.119" y1="2.016" x2="8.119" y2="27.1329">
		<stop  offset="0" style="stop-color:#4C99D4"/>
		<stop  offset="1" style="stop-color:#2F52A0"/>
	</linearGradient>
	<path class="st1" d="M11.44,28.88l-3.37-1.78c0,0-4.3-10.35-5.65-13.35s-1.9-4.8,0.05-8.75s6.75-5.25,9.45-3.9s3.13,1.66,3.13,1.66
		l-1.41,1.5l-5.3,0.42L6.39,7.28L6.34,11.2l1.61,5.72L11.44,28.88z"/>
	<path class="st2" d="M15.04,2.75C12.42,0.88,6.1,2.79,4.76,7.69c-1.34,4.9-0.22,6.01,2.05,11.04s4.63,10.15,4.63,10.15
		s6.5-14.07,7.08-18.3C19.09,6.35,17.67,4.62,15.04,2.75z M15.12,10.97c-0.59,1.79-2.7,4.09-5.42,3.21S6.54,9.74,8.38,7.19
		c1.08-1.5,3.19-2.33,5.03-1.42C15.24,6.68,15.71,9.18,15.12,10.97z"/>
</g>
</svg>
